PathFileType  4	(X/Y/Z) C:\Users\antoi\Documents\MyRepositories\mobilecap\ResultsAnalysis
DataRate	CameraRate	NumFrames	NumMarkers	Units	OrigDataRate	OrigDataStartFrame	OrigNumFrames
100.0	100.0	5	51	mm	100.0	1	261
Frame#	Time	r_knee			r_shank_antsup			r_ankle			r_calc			r_5meta			r_toe			L_knee			L_shank_antsup			L_ankle			L_calc			L_5meta			L_toe			r_sh2			r_sh3			r_sh4			L_sh2			L_sh3			r_thigh1			r_thigh2			r_thigh3			r_thigh4			r_thigh5			L_thigh1			L_thigh2			L_thigh3			L_thigh4			r.ASIS			r.PSIS			L.ASIS			L.PSIS			C7			R_Shoulder			L_Shoulder			R_Sternum			L_Sternum			R_humerus			R_elbow_med			R_elbow_lat			R_forearm			R_wrist_radius			R_wrist_ulna			L_humerus			L_elbow_med			L_elbow_lat			L_forearm			L_wrist_radius			L_wrist_ulna			R_HJC			L_HJC			R_HJC_reg			L_HJC_reg			
		X1	Y1	Z1	X2	Y2	Z2	X3	Y3	Z3	X4	Y4	Z4	X5	Y5	Z5	X6	Y6	Z6	X7	Y7	Z7	X8	Y8	Z8	X9	Y9	Z9	X10	Y10	Z10	X11	Y11	Z11	X12	Y12	Z12	X13	Y13	Z13	X14	Y14	Z14	X15	Y15	Z15	X16	Y16	Z16	X17	Y17	Z17	X18	Y18	Z18	X19	Y19	Z19	X20	Y20	Z20	X21	Y21	Z21	X22	Y22	Z22	X23	Y23	Z23	X24	Y24	Z24	X25	Y25	Z25	X26	Y26	Z26	X27	Y27	Z27	X28	Y28	Z28	X29	Y29	Z29	X30	Y30	Z30	X31	Y31	Z31	X32	Y32	Z32	X33	Y33	Z33	X34	Y34	Z34	X35	Y35	Z35	X36	Y36	Z36	X37	Y37	Z37	X38	Y38	Z38	X39	Y39	Z39	X40	Y40	Z40	X41	Y41	Z41	X42	Y42	Z42	X43	Y43	Z43	X44	Y44	Z44	X45	Y45	Z45	X46	Y46	Z46	X47	Y47	Z47	X48	Y48	Z48	X49	Y49	Z49	X50	Y50	Z50	X51	Y51	Z51	

1	0.00000000	-1198.11809	805.13687	-420.89938	-1233.03686	758.75226	-392.54332	-1259.57515	402.95452	-456.79539	-1317.27162	365.20212	-510.89484	-1139.65039	347.43194	-413.14880	-1098.37268	367.83976	-468.53306	-1199.82179	803.95495	-738.51083	-1181.38958	716.63443	-745.55616	-1261.04282	406.08057	-708.55614	-1322.64185	368.31116	-661.10460	-1142.87573	351.85694	-728.64525	-1100.03612	369.83436	-672.61175	-1242.90494	644.80834	-391.01682	-1164.05680	756.80996	-429.50640	-1175.92092	642.43465	-443.78121	-1265.93224	735.85767	-763.20768	-1279.63117	614.38357	-756.28244	-1090.91328	1093.01666	-474.85827	-1090.57928	980.95034	-465.70732	-1112.62520	964.18284	-402.71522	-1157.60592	1099.42552	-386.06724	-1161.16358	985.89429	-379.44607	-1135.33157	1124.38050	-751.96528	-1144.55795	982.67187	-763.16432	-1248.67765	1129.40472	-760.19251	-1257.43989	989.49074	-740.68182	-1105.89291	1274.85465	-447.42559	-1294.27498	1313.45055	-529.83382	-1097.92710	1263.90144	-685.24309	-1293.74658	1314.04483	-627.30284	-1215.41745	1785.74745	-588.23853	-1165.17695	1741.72805	-423.66064	-1163.07486	1728.89353	-746.68742	-1123.74840	1675.05794	-566.58355	-1121.64173	1671.18007	-605.21947	-1176.04498	1507.78684	-336.55043	-1245.12150	1413.72126	-356.44082	-1197.34279	1419.35177	-307.78679	-1081.05584	1350.75751	-361.73928	-1007.46676	1312.67121	-424.40396	-1013.34757	1281.57891	-392.58114	-1189.17401	1496.72725	-822.99518	-1246.57152	1391.46247	-781.09336	-1221.24827	1393.94930	-838.60009	-1099.91588	1312.24114	-813.23418	-1015.21542	1262.56276	-764.71454	-1038.89624	1228.68821	-781.90668	-1182.69257	1195.09700	-483.93134	-1188.46049	1198.36203	-674.48750	-1174.83875	1199.45634	-481.24624	-1173.98647	1200.41487	-638.45488	
2	0.01000000	-1197.40137	804.99730	-421.32102	-1232.27665	758.25911	-393.03544	-1259.54508	402.92703	-456.82432	-1317.29333	365.14833	-510.90960	-1139.67683	347.44945	-413.15273	-1098.40258	367.85078	-468.51081	-1198.87362	803.58662	-737.97020	-1180.39708	716.47867	-745.56144	-1260.99839	406.11036	-708.61245	-1322.64186	368.30134	-661.11681	-1142.89524	351.85755	-728.60145	-1100.06191	369.80794	-672.59017	-1242.01220	644.23039	-390.97257	-1163.27729	756.57853	-429.70142	-1175.34795	642.16711	-444.09269	-1264.85341	735.82769	-762.49229	-1278.99889	614.54227	-756.10737	-1091.26833	1093.15318	-475.21392	-1090.70642	980.93611	-466.84358	-1112.39674	964.24852	-402.79099	-1157.80320	1099.35860	-386.07726	-1161.02328	985.76652	-379.50418	-1135.42850	1124.33133	-751.93452	-1144.31958	982.64201	-763.19989	-1248.84326	1129.07400	-760.61414	-1257.19511	989.04251	-740.39683	-1106.26277	1274.89851	-447.72320	-1294.76455	1313.75904	-529.76369	-1098.67840	1263.64379	-684.84790	-1294.25383	1314.21623	-627.31856	-1213.92297	1785.76715	-588.28232	-1163.53315	1741.74554	-423.79653	-1161.70506	1728.80181	-746.58968	-1122.38919	1674.88831	-566.68353	-1120.41072	1670.93247	-605.26769	-1174.95230	1507.75634	-337.13664	-1244.12510	1414.22253	-356.72585	-1196.49744	1419.49191	-308.21988	-1080.56873	1350.04461	-362.04750	-1007.19933	1311.11756	-424.51018	-1013.48668	1280.28142	-392.69979	-1188.40179	1496.85807	-823.00609	-1245.93514	1391.82076	-781.35608	-1220.67674	1394.08928	-838.27807	-1099.46749	1312.35056	-812.99443	-1014.96420	1262.49559	-764.14877	-1038.77146	1228.62691	-781.49145	-1183.34202	1195.26523	-483.76207	-1189.24125	1198.26038	-674.31856	-1175.47283	1199.80759	-481.31210	-1174.65236	1200.54241	-638.06679	
3	0.02000000	-1196.51692	804.85405	-421.59097	-1230.70488	758.68733	-393.10166	-1259.56235	402.89472	-456.82340	-1317.31279	365.11453	-510.93952	-1139.69638	347.49184	-413.16381	-1098.43886	367.88281	-468.51704	-1197.74617	803.25867	-737.36626	-1179.18141	716.12581	-745.33029	-1260.95640	406.14406	-708.63909	-1322.65109	368.30660	-661.12587	-1142.91359	351.85575	-728.57381	-1100.08225	369.81436	-672.58456	-1241.20599	643.94471	-391.11616	-1162.40914	756.28722	-430.03081	-1174.67722	641.83372	-444.41185	-1263.60313	735.80286	-761.99998	-1278.23964	614.64752	-755.84527	-1091.66872	1093.17604	-475.64486	-1090.75764	980.98521	-467.42609	-1112.21949	964.33420	-402.97052	-1158.02091	1099.26123	-386.10261	-1160.87506	985.55236	-379.65988	-1135.68538	1124.29001	-752.13287	-1144.02715	982.59798	-763.20882	-1249.11614	1128.64005	-760.73360	-1256.91125	988.59818	-740.29163	-1106.67114	1274.79192	-447.97371	-1295.18118	1314.03889	-529.76691	-1099.32826	1263.33700	-684.62276	-1294.77585	1314.44976	-627.35961	-1212.29550	1785.80852	-588.29012	-1161.91500	1742.05784	-423.67058	-1160.25417	1728.73331	-746.58925	-1120.97860	1674.65305	-566.79353	-1119.05445	1670.66219	-605.34055	-1173.85115	1507.84051	-337.59378	-1243.20381	1414.72230	-357.10180	-1195.62390	1419.62947	-308.69557	-1080.20021	1349.11960	-362.20050	-1007.06458	1309.23219	-424.49135	-1013.66676	1278.59917	-392.43770	-1187.59245	1496.97007	-822.91061	-1245.45144	1392.13648	-781.46186	-1220.15507	1394.25893	-838.16233	-1099.08441	1312.28951	-812.81446	-1014.91467	1262.19602	-763.68465	-1038.74783	1228.39893	-781.29820	-1184.02998	1195.33247	-483.70158	-1190.01892	1198.17271	-674.25774	-1176.04742	1199.94715	-481.36777	-1175.39758	1200.60550	-637.81124	
4	0.03000000	-1195.45801	804.77188	-421.63297	-1228.55747	759.62434	-392.91313	-1259.59284	402.88730	-456.82947	-1317.33301	365.06874	-510.93813	-1139.69909	347.52420	-413.17219	-1098.48235	367.93031	-468.53744	-1196.34213	803.05690	-736.85009	-1177.72646	715.66016	-744.89805	-1260.91585	406.16931	-708.62704	-1322.66702	368.31113	-661.12440	-1142.92845	351.84974	-728.60739	-1100.08223	369.88862	-672.64361	-1240.44745	644.04970	-391.50711	-1161.32807	755.95361	-430.38893	-1173.94407	641.51320	-444.65601	-1262.13131	735.77917	-761.53162	-1277.28769	614.69663	-755.48531	-1092.04770	1093.19644	-475.91943	-1090.76658	981.10277	-467.64926	-1112.02794	964.45802	-403.22343	-1158.23946	1099.15716	-386.14880	-1160.68922	985.39557	-379.85266	-1136.08666	1124.30328	-752.52086	-1143.69168	982.52566	-763.16677	-1249.47550	1128.07531	-760.75724	-1256.57759	988.06951	-740.20478	-1107.18443	1274.50047	-448.31356	-1295.62176	1314.27905	-529.81524	-1099.92522	1263.03615	-684.67387	-1295.34193	1314.70666	-627.49960	-1210.51558	1785.81487	-588.33036	-1160.20142	1742.58291	-423.32994	-1158.69308	1728.65215	-746.57223	-1119.48206	1674.36345	-566.87696	-1117.60931	1670.37894	-605.45359	-1172.67206	1508.01177	-337.93529	-1242.32995	1415.26127	-357.60818	-1194.78729	1419.79683	-309.15870	-1079.98852	1347.86761	-362.19140	-1007.09862	1306.83166	-424.30941	-1014.00585	1276.39106	-391.85906	-1186.79762	1497.03340	-822.61313	-1245.06395	1392.41355	-781.32776	-1219.68955	1394.47112	-838.16381	-1098.90709	1311.98139	-812.66458	-1015.11539	1261.54199	-763.35171	-1038.83002	1227.63636	-781.15867	-1184.78401	1195.26436	-483.85709	-1190.85020	1198.12890	-674.41038	-1176.68474	1199.93120	-481.57597	-1176.23693	1200.61500	-637.82843	
5	0.04000000	-1194.28515	804.69911	-421.67465	-1226.83387	759.95729	-392.92044	-1259.59158	402.91486	-456.84102	-1317.35763	364.99607	-510.88547	-1139.70316	347.53661	-413.16704	-1098.52567	367.98184	-468.55388	-1194.64578	802.91232	-736.47243	-1176.07486	715.19648	-744.38815	-1260.87406	406.18415	-708.58707	-1322.68218	368.30105	-661.11301	-1142.93805	351.85446	-728.65414	-1100.08012	369.98073	-672.73354	-1239.54957	644.14245	-392.05034	-1160.01540	755.60252	-430.68278	-1173.13697	641.25734	-444.83274	-1260.41547	735.74787	-760.92129	-1276.14985	614.73192	-755.05408	-1092.35972	1093.39651	-475.96483	-1090.78198	981.28160	-467.97080	-1111.77163	964.61131	-403.51324	-1158.45832	1099.05199	-386.23856	-1160.46762	985.34307	-379.99492	-1136.54226	1124.36982	-752.81823	-1143.32660	982.40765	-763.04338	-1249.88132	1127.41531	-760.87565	-1256.26606	987.37518	-739.83662	-1107.73112	1274.21017	-448.79379	-1296.19442	1314.49218	-529.90696	-1100.58210	1262.80433	-684.85522	-1295.93413	1314.92992	-627.69331	-1208.65170	1785.71056	-588.41693	-1158.27640	1742.95995	-423.14869	-1157.02008	1728.53306	-746.50737	-1117.91930	1674.05833	-566.95294	-1116.10917	1670.05610	-605.58064	-1171.42117	1508.16065	-338.26339	-1241.46616	1415.79544	-358.24717	-1194.06838	1419.93835	-309.66897	-1079.91712	1346.28352	-362.10673	-1007.32355	1303.89447	-423.78805	-1014.68394	1273.71746	-391.13052	-1186.03717	1497.05982	-822.27597	-1244.66262	1392.68385	-781.05980	-1219.28056	1394.70084	-838.06428	-1098.97672	1311.51597	-812.60978	-1015.51488	1260.51394	-763.19632	-1039.13360	1226.40508	-781.12598	-1185.54807	1195.18031	-484.13323	-1191.72796	1198.11934	-674.68173	-1177.44052	1199.93822	-481.99877	-1177.02518	1200.63687	-638.05034	
